
<svg width="100" height="100" viewBox="0 0 100 100" xmlns="http://www.w3.org/2000/svg">
  <g fill="#2E1065" fill-opacity="0.1">
    <path d="M50 0C50 27.6 27.6 50 0 50C27.6 50 50 72.4 50 100C50 72.4 72.4 50 100 50C72.4 50 50 27.6 50 0Z" />
    <path d="M50 20C50 37.7 37.7 50 20 50C37.7 50 50 62.3 50 80C50 62.3 62.3 50 80 50C62.3 50 50 37.7 50 20Z" fill-opacity="0.2" />
    <circle cx="50" cy="50" r="10" fill-opacity="0.2" />
    <circle cx="20" cy="20" r="5" fill-opacity="0.15" />
    <circle cx="80" cy="20" r="5" fill-opacity="0.15" />
    <circle cx="20" cy="80" r="5" fill-opacity="0.15" />
    <circle cx="80" cy="80" r="5" fill-opacity="0.15" />
  </g>
</svg>
