
<svg width="100" height="100" viewBox="0 0 100 100" xmlns="http://www.w3.org/2000/svg">
  <g fill="#1E40AF" fill-opacity="0.1">
    <circle cx="10" cy="10" r="2" />
    <circle cx="30" cy="20" r="1.5" />
    <circle cx="50" cy="10" r="1" />
    <circle cx="70" cy="25" r="2" />
    <circle cx="90" cy="15" r="1.5" />
    <circle cx="15" cy="35" r="1" />
    <circle cx="35" cy="45" r="2" />
    <circle cx="55" cy="30" r="1.5" />
    <circle cx="75" cy="40" r="1" />
    <circle cx="95" cy="35" r="2" />
    <circle cx="10" cy="60" r="1.5" />
    <circle cx="25" cy="70" r="1" />
    <circle cx="45" cy="65" r="2" />
    <circle cx="65" cy="75" r="1.5" />
    <circle cx="85" cy="60" r="1" />
    <circle cx="15" cy="90" r="2" />
    <circle cx="35" cy="80" r="1.5" />
    <circle cx="55" cy="95" r="1" />
    <circle cx="75" cy="85" r="2" />
    <circle cx="90" cy="90" r="1.5" />
    <!-- Some connecting lines for the constellation effect -->
    <path d="M10 10L30 20L50 10L70 25L90 15M15 35L35 45L55 30L75 40L95 35M10 60L25 70L45 65L65 75L85 60M15 90L35 80L55 95L75 85L90 90" stroke="#1E40AF" stroke-opacity="0.1" stroke-width="0.5" fill="none" />
  </g>
</svg>
